<svg width="800px" height="800px" viewBox="0 0 24 24" xmlns="http://www.w3.org/2000/svg">
    <path fill="#000000" d="M12 15.5A3.5 3.5 0 0 1 8.5 12 3.5 3.5 0 0 1 12 8.5a3.5 3.5 0 0 1 3.5 3.5 3.5 3.5 0 0 1-3.5 3.5m7.43-2.92c.04-.34.07-.69.07-1.08s-.03-.74-.07-1.08l2.32-1.82c.21-.16.27-.46.13-.7l-2.2-3.81c-.13-.24-.42-.32-.65-.24l-2.74 1.1c-.57-.44-1.17-.79-1.84-1.05l-.42-2.93A.55.55 0 0 0 14 2h-4c-.28 0-.5.21-.54.47l-.42 2.93c-.67.26-1.27.62-1.84 1.05L4.46 5.36c-.23-.09-.52 0-.65.24L1.61 9.41c-.14.23-.07.54.13.7L4.06 12c-.04.34-.07.69-.07 1.08s.03.74.07 1.08L1.74 16c-.21.16-.27.46-.13.7l2.2 3.81c.13.24.42.32.65.24l2.74-1.1c.57.44 1.17.79 1.84 1.05l.42 2.93c.04.26.26.47.54.47h4c.28 0 .5-.21.54-.47l.42-2.93c.67-.26 1.27-.61 1.84-1.05l2.74 1.1c.23.09.52 0 .65-.24l2.2-3.81c.14-.24.07-.54-.13-.7l-2.32-1.82z"/>
</svg>
